<svg width="24" height="20" viewBox="0 0 24 20" fill="none" xmlns="http://www.w3.org/2000/svg">
<path d="M0.2925 10.7075L9.2925 19.7075C9.48014 19.8951 9.73464 20.0006 10 20.0006C10.2654 20.0006 10.5199 19.8951 10.7075 19.7075C10.8951 19.5199 11.0006 19.2654 11.0006 19C11.0006 18.7346 10.8951 18.4801 10.7075 18.2925L3.41375 11H23C23.2652 11 23.5196 10.8946 23.7071 10.7071C23.8946 10.5196 24 10.2652 24 10C24 9.73478 23.8946 9.48043 23.7071 9.29289C23.5196 9.10536 23.2652 9 23 9H13.2069H3.41375L10.7075 1.7075C10.8951 1.51986 11.0006 1.26536 11.0006 0.999999C11.0006 0.734635 10.8951 0.48014 10.7075 0.292499C10.5199 0.104858 10.2654 -0.000556946 10 -0.000556946C9.73464 -0.000556946 9.48014 0.104858 9.2925 0.292499L0.2925 9.2925C0.199523 9.38537 0.125764 9.49566 0.0754395 9.61706C0.0251152 9.73846 -0.000785828 9.86858 -0.000785828 10C-0.000785828 10.1314 0.0251152 10.2615 0.0754395 10.3829C0.125764 10.5043 0.199523 10.6146 0.2925 10.7075Z" fill="#1D1E1C"/>
</svg>
