<svg width="24" height="20" viewBox="0 0 24 20" fill="none" xmlns="http://www.w3.org/2000/svg">
<path d="M23.7075 10.7075L14.7075 19.7075C14.5199 19.8951 14.2654 20.0006 14 20.0006C13.7346 20.0006 13.4801 19.8951 13.2925 19.7075C13.1049 19.5199 12.9994 19.2654 12.9994 19C12.9994 18.7346 13.1049 18.4801 13.2925 18.2925L20.5863 11H1C0.734784 11 0.48043 10.8946 0.292893 10.7071C0.105357 10.5196 0 10.2652 0 10C0 9.73478 0.105357 9.48043 0.292893 9.29289C0.48043 9.10536 0.734784 9 1 9H20.5863L13.2925 1.7075C13.1049 1.51986 12.9994 1.26536 12.9994 0.999999C12.9994 0.734635 13.1049 0.48014 13.2925 0.292499C13.4801 0.104858 13.7346 -0.000556946 14 -0.000556946C14.2654 -0.000556946 14.5199 0.104858 14.7075 0.292499L23.7075 9.2925C23.8005 9.38537 23.8742 9.49566 23.9246 9.61706C23.9749 9.73846 24.0008 9.86858 24.0008 10C24.0008 10.1314 23.9749 10.2615 23.9246 10.3829C23.8742 10.5043 23.8005 10.6146 23.7075 10.7075Z" fill="#1D1E1C"/>
</svg>
